<svg width="24" height="27" viewBox="0 0 24 27" fill="none" xmlns="http://www.w3.org/2000/svg">
<g clip-path="url(#clip0)">
<path d="M11.8173 9.11707L15.2529 12.9373L15.2693 12.7372C15.2693 10.7301 13.8023 9.09888 11.9973 9.09888L11.8173 9.11707Z" fill="black" fill-opacity="0.6"/>
<path d="M11.9973 6.67337C15.0075 6.67337 17.4506 9.39003 17.4506 12.7373C17.4506 13.5196 17.3088 14.2654 17.0634 14.9506L20.2536 18.498C21.9005 16.9699 23.1984 14.9931 24 12.7373C22.1077 7.41321 17.4561 3.64142 11.9973 3.64142C10.4704 3.64142 9.00893 3.9446 7.65106 4.49035L10.0069 7.10389C10.623 6.83709 11.2938 6.67337 11.9973 6.67337Z" fill="black" fill-opacity="0.6"/>
<path d="M1.09064 3.36848L3.57735 6.13363L4.07362 6.68547C2.27403 8.24996 0.850716 10.3299 0 12.7373C1.88686 18.0614 6.54397 21.8332 11.9973 21.8332C13.6878 21.8332 15.302 21.4693 16.7799 20.8083L17.2434 21.3238L20.4227 24.8651L21.8133 23.3249L2.48124 1.82217L1.09064 3.36848ZM7.12204 10.0691L8.80711 11.9429C8.75803 12.2037 8.72531 12.4644 8.72531 12.7373C8.72531 14.7444 10.1922 16.3756 11.9973 16.3756C12.2427 16.3756 12.4772 16.3392 12.7062 16.2847L14.3913 18.1584C13.666 18.5586 12.8589 18.8012 11.9973 18.8012C8.98707 18.8012 6.54397 16.0845 6.54397 12.7373C6.54397 11.7792 6.76212 10.8817 7.12204 10.0691Z" fill="black" fill-opacity="0.6"/>
</g>
<defs>
<clipPath id="clip0">
<rect width="24" height="26.6874" fill="white"/>
</clipPath>
</defs>
</svg>
